<?xml version="1.0" standalone="no"?>
<svg viewBox="0 0 1024 1024" version="1.1" xmlns="http://www.w3.org/2000/svg" width="200" height="200">
  <path d="M800.237037 384.316049c0-160.553086-127.683951-288.237037-288.237037-288.237037S223.762963 223.762963 223.762963 384.316049c0 108.720988 58.153086 201.007407 146.646914 249.046914-121.362963 48.039506-214.91358 152.967901-240.197531 288.237037-3.792593 16.434568 6.320988 35.397531 25.28395 37.925926h6.320988c16.434568 0 29.076543-10.11358 31.604938-25.283951C223.762963 783.802469 355.239506 675.081481 508.207407 672.553086h6.320988c158.024691 0 285.708642-128.948148 285.708642-288.237037z m-512 0c0-125.155556 98.607407-223.762963 223.762963-223.762963s223.762963 98.607407 223.762963 223.762963c0 121.362963-98.607407 221.234568-221.234568 223.762963H505.679012c-121.362963-3.792593-217.441975-102.4-217.441975-223.762963z m434.883951 290.765432c-16.434568-10.11358-35.397531-6.320988-44.246914 10.113581s-6.320988 35.397531 10.11358 44.246913c73.323457 51.832099 125.155556 121.362963 140.325926 204.8 3.792593 16.434568 16.434568 25.283951 31.604939 25.283951h6.320987c16.434568-3.792593 29.076543-18.962963 25.283951-37.925926-18.962963-98.607407-79.644444-185.837037-169.402469-246.518519z" fill="#8A8A8A"/>
</svg>