<?xml version="1.0" standalone="no"?>
<svg width="200" height="200" viewBox="0 0 1024 1024" version="1.1" xmlns="http://www.w3.org/2000/svg">
    <path d="M790.6304 944.4352h-474.624c-81.2544 0-147.0976-65.8432-147.0976-147.0976V228.4544c0-81.2544 65.8432-147.0976 147.0976-147.0976h474.6752c81.2544 0 147.0976 65.8432 147.0976 147.0976v568.8832c-0.0512 81.2544-65.8944 147.0976-147.1488 147.0976z" fill="#FF5D50" />
    <path d="M585.3696 357.6832m-133.2736 0a133.2736 133.2736 0 1 0 266.5472 0 133.2736 133.2736 0 1 0-266.5472 0Z" fill="#FFDF99" />
    <path d="M816.9472 643.4304c0-12.3392-4.0448-24.1152-11.264-33.1264-22.9888-28.7232-84.8896-84.48-218.9824-84.48-134.0928 0-197.4272 55.7568-221.184 84.48-7.4752 9.0624-11.7248 21.0944-11.7248 33.6896v93.7472c0 26.6752 18.5344 48.3328 41.4208 48.3328h380.3136c22.8864 0 41.4208-21.6576 41.4208-48.3328v-94.3104zM239.616 398.08H145.1008c-31.4368 0-56.9344-25.4976-56.9344-56.9344v-2.4064c0-31.4368 25.4976-56.9344 56.9344-56.9344H239.616c31.4368 0 56.9344 25.4976 56.9344 56.9344v2.4064c0 31.4368-25.4976 56.9344-56.9344 56.9344zM239.616 731.7504H145.1008c-31.4368 0-56.9344-25.4976-56.9344-56.9344v-2.4064c0-31.4368 25.4976-56.9344 56.9344-56.9344H239.616c31.4368 0 56.9344 25.4976 56.9344 56.9344v2.4064c0 31.4368-25.4976 56.9344-56.9344 56.9344z" fill="#FFDF99" />
</svg>