<?xml version="1.0" standalone="no"?>
<svg width="200" height="200" viewBox="0 0 1024 1024" version="1.1" xmlns="http://www.w3.org/2000/svg">
    <path d="M743.0144 910.5408H285.3888c-96.2048 0-174.1824-77.9776-174.1824-174.1824V402.2784c0-37.7856 19.4048-72.9088 51.3536-92.9792l292.1984-183.6544a109.80864 109.80864 0 0 1 116.6848-0.1536l294.1952 183.8592a109.81376 109.81376 0 0 1 51.6096 93.1328v333.8752c-0.0512 96.2048-78.0288 174.1824-174.2336 174.1824z" fill="#FF5D50" />
    <path d="M514.2016 553.0112c-83.5072 0-151.1936 67.6864-151.1936 151.1936v206.3872h302.3872v-206.3872c0-83.5072-67.6864-151.1936-151.1936-151.1936z" fill="#FFDF99" />
</svg>