<?xml version="1.0" standalone="no"?>
<svg viewBox="0 0 1024 1024" version="1.1" xmlns="http://www.w3.org/2000/svg" width="200" height="200">
    <path d="M357.9904 318.1568a175.5648 173.2096 0 1 0 351.1296 0 175.5648 173.2096 0 1 0-351.1296 0Z" fill="#FEC963"/>
    <path d="M616.5504 535.5008H458.1376c-156.8768 0-284.0576 127.1808-284.0576 284.0576v25.344c0 35.1232 28.4672 63.5392 63.5392 63.5392h599.4496c35.1232 0 63.5392-28.4672 63.5392-63.5392v-25.344c0.0512-156.8768-127.1296-284.0576-284.0576-284.0576z" fill="#9bc6fc"/>
    <path d="M663.4496 814.6944H370.176c-19.8144 0-35.84-16.0256-35.84-35.84s16.0256-35.84 35.84-35.84h293.2736c19.8144 0 35.84 16.0256 35.84 35.84s-16.0256 35.84-35.84 35.84z" fill="#FEC963"/>
    <path d="M641.536 472.4736c54.8864-39.68 90.624-103.7312 90.624-175.872 0-120.1152-98.9184-217.8048-220.4672-217.8048S291.2256 176.4864 291.2256 296.6016c0 72.192 35.7376 136.2432 90.624 175.872-159.6416 25.2416-282.1632 163.7888-282.1632 330.4448v14.5408c0 62.8736 51.1488 114.0736 114.0736 114.0736h595.8656c62.8736 0 114.0736-51.1488 114.0736-114.0736v-14.5408c0-166.656-122.5216-305.2032-282.1632-330.4448zM337.3056 296.6016c0-94.72 78.2336-171.7248 174.3872-171.7248S686.08 201.9328 686.08 296.6016c0 94.72-78.2336 171.776-174.3872 171.776-96.1536-0.0512-174.3872-77.1072-174.3872-171.776z m540.3136 520.8576c0 37.4784-30.5152 67.9936-67.9936 67.9936H213.76c-37.4784 0-67.9936-30.5152-67.9936-67.9936v-14.5408c0-159.0784 129.4336-288.512 288.512-288.512h154.8288c159.0784 0 288.512 129.4336 288.512 288.512v14.5408z" fill="#474747"/>
    <path d="M658.3296 745.5744H365.056c-12.7488 0-23.04 10.2912-23.04 23.04s10.2912 23.04 23.04 23.04h293.2736c12.7488 0 23.04-10.2912 23.04-23.04s-10.2912-23.04-23.04-23.04z" fill="#474747"/>
</svg>