<?xml version="1.0" standalone="no"?>
<svg width="200" height="200" viewBox="0 0 1024 1024" version="1.1" xmlns="http://www.w3.org/2000/svg">
  <path d="M511.0784 507.392m-424.2944 0a424.2944 424.2944 0 1 0 848.5888 0 424.2944 424.2944 0 1 0-848.5888 0Z" fill="#dddddd" />
  <path d="M511.0784 323.584m-135.68 0a135.68 135.68 0 1 0 271.36 0 135.68 135.68 0 1 0-271.36 0Z" fill="#8a8a8a" />
  <path d="M786.2272 614.5024c0-12.544-4.8128-24.576-13.3632-33.7408-27.2896-29.2352-100.864-86.016-260.1984-86.016-159.2832 0-234.5984 56.7296-262.8096 85.9648a49.3824 49.3824 0 0 0-13.9264 34.304v95.4368c0 27.1872 22.016 49.2032 49.2032 49.2032h451.9424c27.1872 0 49.2032-22.016 49.2032-49.2032v-95.9488z" fill="#8a8a8a" />
</svg>