<?xml version="1.0" standalone="no"?>
<svg viewBox="0 0 1024 1024" version="1.1" xmlns="http://www.w3.org/2000/svg" width="200" height="200">
    <path d="M889.386667 807.317333c-65.6 78.890667-158.506667 120.298667-257.6 129.109334h-0.298667c-4.778667 0.533333-9.557333 0.853333-14.336 1.066666-0.426667 0.106667-0.810667 0.106667-1.237333 0.106667-0.405333 0.426667-1.322667 0.426667-1.706667 0.426667-4.586667 0.213333-9.173333 0.426667-13.76 0.512-46.378667 1.066667-93.696-4.970667-139.882667-17.301334-0.512-0.106667-1.109333-0.32-1.621333-0.426666-5.610667-1.493333-11.2-3.072-16.789333-4.906667-5.184-1.450667-10.474667-3.157333-15.68-4.970667a29.461333 29.461333 0 0 0-2.133334-0.64c-7.616-2.645333-15.146667-5.504-22.570666-8.490666a388.224 388.224 0 0 1-18.133334-7.637334 516.394667 516.394667 0 0 1-111.509333-65.621333c-0.896-0.746667-1.92-1.493333-2.837333-2.346667a72.576 72.576 0 0 1-4.778667-3.712c-51.264-40.981333-95.232-92.373333-126.976-153.002666-144.661333-275.114667 39.786667-487.68 207.36-498.005334 3.648-0.213333 7.210667-0.32 10.773333-0.32h9.664c148.757333-7.850667 310.912 77.845333 424.064 194.538667 1.408 1.386667 2.730667 2.773333 4.053334 4.245333 5.610667 5.738667 10.986667 11.669333 16.277333 17.621334 121.088 134.741333 176.128 303.573333 79.68 419.733333" fill="#FFD066"/>
    <path d="M307.456 136.234667c0-36.906667 213.333333 0 213.333333 0s213.333333-36.437333 213.333334 0c0 79.786667-117.290667 179.328-177.92 225.450666a58.112 58.112 0 0 1-70.826667 0c-60.629333-46.122667-177.92-145.642667-177.92-225.450666z" fill="#FF6686"/>
    <path d="M615.616 260.010667a118.528 118.528 0 1 0 0-237.056 118.528 118.528 0 0 0 0 237.034666z" fill="#FF6686"/>
    <path d="M425.962667 260.010667a118.528 118.528 0 1 0 0-237.056 118.528 118.528 0 0 0 0 237.034666z" fill="#FF6686"/>
    <path d="M677.632 109.184c-7.445333 11.690667-24.469333 14.165333-38.037333 5.525333-13.568-8.64-18.56-25.109333-11.093334-36.8 7.424-11.690667 24.469333-14.165333 38.037334-5.546666 13.568 8.64 18.538667 25.130667 11.093333 36.821333z" fill="#FFA6B8"/>
    <path d="M424.746667 446.741333c0 39.253333-19.242667 74.005333-48.853334 95.296 54.784-3.584 108.992 12.266667 157.077334 51.2 48.021333-32.298667 94.442667-46.250667 138.346666-46.208a117.333333 117.333333 0 1 1 79.637334 15.573334c90.090667 35.456 164.821333 126.805333 214.144 225.450666 39.872 79.744-69.205333 57.813333-157.589334-32 5.333333 41.984 0.362667 87.637333-6.485333 126.997334-50.965333 30.592-108.949333 48-169.237333 53.376h-0.298667c-4.778667 0.533333-9.557333 0.853333-14.336 1.066666-0.426667 0.106667-0.832 0.106667-1.237333 0.106667-0.405333 0.426667-1.322667 0.426667-1.706667 0.426667-4.586667 0.213333-9.173333 0.426667-13.76 0.512-46.378667 1.066667-93.696-4.970667-139.882667-17.301334l-0.853333-0.213333a15.616 15.616 0 0 0-0.768-0.213333c-5.610667-1.493333-11.2-3.072-16.789333-4.906667a287.786667 287.786667 0 0 1-15.68-4.970667 28.202667 28.202667 0 0 0-2.133334-0.64c-7.616-2.645333-15.146667-5.504-22.570666-8.490666a385.92 385.92 0 0 1-18.133334-7.637334 516.416 516.416 0 0 1-111.509333-65.621333l-0.832-0.682667a32.298667 32.298667 0 0 1-2.005333-1.664 505.557333 505.557333 0 0 1-23.872-19.754666c-5.632-32.256-8.277333-64.341333-5.653334-93.056-93.354667 120.576-176.426667 91.413333-149.333333 42.666666 51.541333-92.8 123.605333-160.704 200.256-193.152a117.354667 117.354667 0 1 1 134.08-116.16z" fill="#7F4FE3"/>
    <path d="M293.034667 843.861333a502.997333 502.997333 0 0 1-21.738667-16 31.573333 31.573333 0 0 1-2.005333-1.664 503.936 503.936 0 0 1-23.872-19.754666c-5.632-32.256-8.277333-64.341333-5.653334-93.056-93.354667 120.576-176.426667 91.413333-149.333333 42.666666l3.733333-6.656c-9.6 45.44 74.090667-0.490667 171.52-89.066666 2.944 52.842667 10.24 119.829333 27.349334 183.530666zM739.498667 912.512c21.226667-54.826667 32.042667-128 31.509333-223.658667 90.389333 107.242667 191.146667 144.853333 197.674667 107.093334 28.8 70.250667-75.84 46.805333-161.173334-39.893334 5.333333 41.984 0.362667 87.637333-6.485333 126.997334-19.562667 11.733333-40.149333 21.546667-61.525333 29.461333zM616.32 464.917333a117.354667 117.354667 0 0 0 231.893333-36.224c-44.586667 62.656-129.130667 122.197333-231.893333 36.224z" fill="#6B3DCD"/>
    <path d="M625.813333 936.96c-2.88 0.213333-5.76 0.405333-8.661333 0.533333-0.426667 0.106667-0.832 0.106667-1.237333 0.106667-0.405333 0.426667-1.322667 0.426667-1.706667 0.426667-4.586667 0.213333-9.173333 0.426667-13.76 0.512-46.378667 1.066667-93.696-4.970667-139.882667-17.301334l-0.853333-0.213333c-0.277333-0.085333-0.533333-0.170667-0.768-0.213333a323.2 323.2 0 0 1-16.789333-4.906667 248.789333 248.789333 0 0 1-2.496-0.704l9.344-62.314667-74.304 18.56a20.096 20.096 0 0 1-19.072-5.269333c-7.466667-7.488-7.893333-19.498667-0.170667-26.709333 25.344-23.658667 70.016-54.933333 123.946667-66.944a106.666667 106.666667 0 1 1 91.242666 0.469333c54.933333 12.394667 102.933333 43.52 130.794667 66.944 8.149333 6.848 8.128 19.029333 0.597333 26.56a19.264 19.264 0 0 1-18.282666 5.077333l-74.752-18.688 16.810666 84.074667z" fill="#F0EBFA"/>
    <path d="M418.837333 676.437333a106.666667 106.666667 0 0 0 213.333334 0.362667c-54.72 59.328-158.165333 45.546667-213.333334-0.362667z" fill="#DFCFFF"/>
    <path d="M423.68 462.762667a117.354667 117.354667 0 0 1-233.578667-17.002667c47.808 60.245333 132.394667 109.781333 233.6 17.002667z" fill="#6B3DCD"/>
</svg>